<svg xmlns="http://www.w3.org/2000/svg" xmlns:xlink="http://www.w3.org/1999/xlink" width="210mm" height="287mm">
  <defs>
    <linearGradient id="b">
      <stop offset="0" stop-color="#fff"/>
      <stop offset="1" stop-color="#fff" stop-opacity="0"/>
    </linearGradient>
    <linearGradient id="e" x1="49.136964" x2="747.09593" y1="467.2588" y2="467.2588" gradientTransform="scale(.90134 1.10946)" gradientUnits="userSpaceOnUse">
      <stop offset="0" stop-color="#3465a4"/>
      <stop offset="1" stop-color="#204a87"/>
    </linearGradient>
    <linearGradient id="a">
      <stop offset="0" stop-color="#fff"/>
      <stop offset="1" stop-color="#729fcf"/>
    </linearGradient>
    <linearGradient id="f">
      <stop offset="0"/>
      <stop offset="1" stop-opacity="0"/>
    </linearGradient>
    <linearGradient id="c">
      <stop offset="0" stop-color="#3465a4"/>
      <stop offset="1" stop-color="#729fcf" stop-opacity="0"/>
    </linearGradient>
    <linearGradient id="d">
      <stop offset="0" stop-color="#729fcf"/>
      <stop offset=".31578946" stop-color="#babdb6"/>
      <stop offset="1" stop-color="#3465a4"/>
    </linearGradient>
    <linearGradient xlink:href="#a" id="k" x1="24" x2="24" y1="16.525082" y2="13.284962" gradientUnits="userSpaceOnUse"/>
    <linearGradient xlink:href="#b" id="l" x1="16.07143" x2="15.785715" y1="19.5" y2="30" gradientTransform="matrix(21.1429 0 0 21.14146 -153.05968 9.218795)" gradientUnits="userSpaceOnUse"/>
    <linearGradient xlink:href="#c" id="j" x1="17.160095" x2="37.969398" y1="14.004482" y2="56.575912" gradientTransform="matrix(21.1429 0 0 21.14146 -150.03918 -46.655168)" gradientUnits="userSpaceOnUse"/>
    <linearGradient xlink:href="#d" id="h" x1="9.3030529" x2="38.826412" y1="26.71875" y2="26.71875" gradientTransform="matrix(21.1429 0 0 21.14146 -150.03918 -46.655168)" gradientUnits="userSpaceOnUse"/>
    <linearGradient xlink:href="#e" id="i" x1="49.136964" x2="747.09593" y1="467.2588" y2="467.2588" gradientTransform="matrix(.90134 0 0 1.10939 -.0777659 -.15218394)" gradientUnits="userSpaceOnUse"/>
    <radialGradient xlink:href="#f" id="g" cx="23.857143" cy="40" r="17.142857" fx="23.857143" fy="40" gradientTransform="matrix(1 0 0 .5 0 20)" gradientUnits="userSpaceOnUse"/>
  </defs>
  <path fill="url(#g)" d="M41 40a17.142857 8.5714283 0 1 1-34.2857132 0A17.142857 8.5714283 0 1 1 41 40z" display="block" overflow="visible" style="marker:none" transform="matrix(22.3851 0 0 24.3393 -173.63367 -227.68162)"/>
  <path fill="url(#h)" stroke="url(#i)" stroke-miterlimit="10" stroke-width="21.1421833" d="M356.06861 141.63599c-166.17054 0-301.285978 59.24893-301.285978 132.13414v488.89626c0 72.88517 135.115438 132.13414 301.285978 132.13414 166.1705 0 306.66722-59.24897 306.66722-132.13414V273.77013c0-72.88521-140.49672-132.13414-306.66722-132.13414z" display="block" overflow="visible" style="marker:none"/>
  <path fill="none" stroke="url(#j)" stroke-miterlimit="10" stroke-width="21.1421833" d="M356.25045 158.11195c-154.92886 0-280.904417 55.24095-280.904417 123.19572v467.78168c0 67.95457 125.975557 123.19549 280.904417 123.19549 154.93094 0 285.92181-55.24092 285.92181-123.19549V281.30767c0-67.95477-130.99087-123.19572-285.92181-123.19572z" display="block" opacity=".5443038" overflow="visible" style="marker:none"/>
  <path fill="#3465a4" stroke="url(#k)" stroke-miterlimit="10" stroke-width="1.00492704" d="M36.857142 14.071428a12.857142 5.5 0 1 1-25.714284 0 12.857142 5.5 0 1 1 25.714284 0z" display="block" overflow="visible" style="marker:none" transform="matrix(21.93135 0 0 20.18204 -168.96166 -12.013594)"/>
  <path fill="url(#l)" d="m138.41085 370.13352 7.55014 354.87462 96.65268 27.18178-3.01922-353.36426s43.79543 0 114.77639-4.53041c-110.27717-4.92743-236.44958-52.31835-279.389326-83.05571 29.958026 44.23175 63.429336 58.89398 63.429336 58.89398z" display="block" opacity=".49367083" overflow="visible" style="marker:none"/>
  <path stroke="#000" stroke-width="37.39400482" d="M455.15071 729.35357c2.83299-23.59937 1.98399-27.06013 19.56298-23.2374l4.463.39198c13.51699.61495 31.19898-2.17385 41.58698-6.99952 22.36198-10.37529 35.62198-27.69809 13.57199-23.14641-50.29697 10.37529-53.75497-6.65454-53.75497-6.65454 53.11097-78.79757 75.31296-178.82368 56.14897-203.308-52.26997-66.7844-142.74792-35.20357-144.26192-34.38363l-.482.089c-9.93799-2.06185-21.05998-3.29377-33.55398-3.49576-22.76098-.37397-40.03197 5.96659-53.13296 15.90291 0 0-161.40791-66.49342-153.89891 83.62224 1.597 31.9338 45.77697 241.63836 98.46994 178.29772 19.25899-23.1614 37.87098-42.74505 37.87098-42.74505 9.24199 6.13957 20.30698 9.27136 31.91198 8.14643l.897-.76494c-.281 2.8758-.157 5.68861.359 9.01838-13.572 15.16595-9.584 17.82877-36.72298 23.41438-27.45698 5.65861-11.32599 15.73292-.797 18.36574 12.76799 3.19278 42.30497 7.71547 62.26796-20.22261l-.795 3.18778c5.325 4.25971 4.965 30.61689 5.72 49.4486.756 18.8327 2.017 36.40649 5.856 46.76778 3.83899 10.35928 8.36899 37.04745 44.03597 29.40397 29.80898-6.38756 52.59997-15.58093 54.67697-101.10004"/>
  <path fill="#336791" d="M534.34066 676.36022c-50.30197 10.37529-53.75997-6.65454-53.75997-6.65454 53.11097-78.80257 75.31296-178.83068 56.15297-203.312-52.26997-66.7804-142.75192-35.19757-144.26192-34.37763l-.486.087c-9.93799-2.06285-21.05998-3.29177-33.55998-3.49576-22.76098-.37297-40.02597 5.96659-53.12696 15.90091 0 0-161.41091-66.49042-153.90391 83.62424 1.597 31.9358 45.77597 241.64036 98.47094 178.29972 19.25999-23.1614 37.86898-42.74505 37.86898-42.74505 9.24299 6.13957 20.30798 9.27136 31.90798 8.14643l.901-.76494c-.28 2.8758-.152 5.68861.361 9.01838-13.575 15.16595-9.586 17.82877-36.72298 23.41438-27.45898 5.65861-11.32799 15.73292-.796 18.36574 12.76799 3.19278 42.30697 7.71547 62.26596-20.22261l-.796 3.18778c5.319 4.25971 9.054 27.70909 8.428 48.96563-.626 21.25754-1.044 35.85153 3.147 47.25075 4.19099 11.39921 8.36799 37.04745 44.04197 29.40397 29.80898-6.38756 45.25597-22.94042 47.40497-50.55152 1.525-19.62965 4.976-16.72785 5.194-34.27764l2.768-8.30842c3.19199-26.60917.507-35.19358 18.87198-31.20086l4.463.39198c13.51699.61495 31.20798-2.17385 41.59098-6.99952 22.35798-10.37529 35.61798-27.69809 13.57299-23.14641h.002z"/>
  <path fill="none" stroke="#fff" stroke-linecap="round" stroke-linejoin="round" stroke-width="12.46466732" d="M347.81177 691.61317c-1.385 49.51259.348 99.37016 5.193 111.48733 4.84799 12.11716 15.22299 35.68554 50.89997 28.04306 29.80598-6.38956 40.65097-18.7547 45.35697-46.04782 3.466-20.08062 10.14799-75.84878 11.00499-87.27499M305.0498 443.40227s-161.52091-66.01146-154.01191 84.1032c1.597 31.9358 45.77897 241.64736 98.47294 178.30373 19.25599-23.16441 36.67098-41.33216 36.67098-41.33216M392.29474 431.3541c-5.59099 1.75287 89.84795-34.8866 144.08692 34.41463 19.15899 24.48231-3.043 124.51042-56.15297 203.31499"/>
  <path fill="none" stroke="#fff" stroke-linecap="round" stroke-linejoin="bevel" stroke-width="12.46466732" d="M480.22769 669.08372s3.461 17.03483 53.76397 6.65255c22.03999-4.55169 8.77599 12.77312-13.57699 23.1534-18.34499 8.51342-59.47397 10.69527-60.14597-1.06892-1.729-30.35291 21.64699-21.13155 19.95999-28.73703-1.525-6.84952-11.97899-13.57206-18.89399-30.33591-6.03699-14.63199-82.79595-126.84026 21.28699-110.17541 3.813-.78895-27.14598-98.99518-124.55293-100.59207-97.38494-1.59689-94.18994 119.75375-94.18994 119.75375"/>
  <path fill="none" stroke="#fff" stroke-linecap="round" stroke-linejoin="round" stroke-width="12.46466732" d="M320.54979 679.46401c-13.577 15.16496-9.584 17.82777-36.72298 23.41539-27.45898 5.65961-11.32599 15.73191-.797 18.36373 12.76799 3.19478 42.30697 7.71747 62.26596-20.2276 6.078-8.50842-.036-22.08448-8.38499-25.54525-4.034-1.67088-9.428-3.76474-16.36099 3.99373h0z"/>
  <path fill="none" stroke="#fff" stroke-linecap="round" stroke-linejoin="round" stroke-width="12.46466732" d="M319.66079 679.19903c-1.368-8.91639 2.93-19.52666 7.53599-31.9398 6.922-18.62472 22.89299-37.25244 10.117-96.33237-9.523-44.02597-73.39596-9.16237-73.43596-3.19278-.039 5.96759 2.889 30.25792-1.067 58.54397-5.162 36.91046 23.48799 68.12731 56.47897 64.93353"/>
  <path fill="#fff" stroke="#fff" stroke-width="4.15485573" d="M304.4628 546.83914c-.288 2.03886 3.73299 7.47949 8.97599 8.20644 5.234.72995 9.714-3.52176 9.998-5.55862.28399-2.03886-3.732-4.2847-8.977-5.01465-5.237-.73095-9.71899.33297-9.99599 2.36683h-.001z"/>
  <path fill="#fff" stroke="#fff" stroke-width="2.07742786" d="M463.8867 542.68243c.284 2.03886-3.732 7.47948-8.97599 8.20643-5.238.72995-9.718-3.52175-10.005-5.55861-.277-2.03886 3.74-4.28471 8.979-5.01466 5.23899-.72995 9.71799.33298 10.00199 2.36784v-.001z"/>
  <path fill="none" stroke="#fff" stroke-linecap="round" stroke-linejoin="round" stroke-width="12.46466732" d="M482.62169 528.5724c.863 15.9929-3.445 26.88615-3.988 43.91098-.804 24.74629 11.79899 53.07034-7.19099 81.42939"/>
  <path fill="none" d="M-64.879845 115.85568h850v850h-850z"/>
</svg>